<?xml version="1.0" standalone="no"?>
<!DOCTYPE svg PUBLIC "-//W3C//DTD SVG 20010904//EN"
 "http://www.w3.org/TR/2001/REC-SVG-20010904/DTD/svg10.dtd">
<svg version="1.0" xmlns="http://www.w3.org/2000/svg"
 width="500.000000pt" height="500.000000pt" viewBox="0 0 500.000000 500.000000"
 preserveAspectRatio="xMidYMid meet">

<g transform="translate(0.000000,500.000000) scale(0.100000,-0.100000)"
fill="#000000" stroke="none">
<path d="M3750 3177 c0 -13 -18 -113 -41 -223 l-41 -199 5 -290 c7 -398 25
-1084 37 -1415 29 -774 30 -734 -33 -767 -31 -15 -395 -59 -707 -84 -168 -13
-707 -7 -990 11 -155 10 -527 45 -587 55 -47 8 -41 -11 9 -29 79 -29 574 -70
973 -81 116 -3 250 -8 299 -10 119 -7 390 14 839 64 173 20 205 30 228 73 12
23 12 27 -11 678 -6 151 -15 475 -20 720 -6 245 -14 535 -20 644 -12 246 -2
376 44 596 19 91 37 173 41 182 11 29 37 30 77 3 21 -14 38 -22 38 -18 0 5
-15 18 -34 31 -18 13 -47 36 -62 52 -35 36 -44 37 -44 7z"/>
<path d="M1220 3153 c-24 -19 -51 -45 -60 -57 -8 -13 -43 -51 -77 -84 -34 -34
-74 -79 -88 -102 -20 -31 -31 -40 -53 -40 -35 0 -127 44 -317 152 -82 47 -175
98 -205 112 -97 47 -18 -7 122 -84 70 -39 145 -80 165 -92 125 -71 227 -118
257 -118 27 0 39 7 61 35 14 20 78 88 141 151 63 64 114 121 114 128 -1 32
-17 32 -60 -1z"/>
<path d="M4665 3168 c-118 -95 -505 -297 -572 -298 -16 -1 -16 -2 2 -16 41
-32 101 -14 284 85 224 120 309 175 317 206 10 42 0 49 -31 23z"/>
</g>
</svg>
